<?xml version="1.0" standalone="yes"?>
<svg xmlns="http://www.w3.org/2000/svg" width="320" height="320">
<path style="fill:#faf3e0; stroke:none;" d="M0 0L0 320L320 320L320 0L0 0z"/>
<path style="fill:#060504; stroke:none;" d="M49 24C49.6216 29.5647 49 35.3809 49 41L51 41L51 37L55 37C55.2287 41.896 53.2912 44.531 52 49C54.8262 47.217 56.5773 45.5315 60 45L60 42L65 43C67.0875 40.7733 67.9655 40.1028 71 40L70 44C74.4101 45.5202 79.3036 46.1152 81 41C78.8277 41.4637 77.0417 42.1055 75 43C74.5176 40.636 74.364 40.4824 72 40C72.8105 37.1641 73.7842 35.9683 76 34L75 30C76.6076 31.4498 77.0643 32.0514 78 34C78.683 32.494 78.8259 31.6852 79 30L83 30C83.0318 32.875 82.7923 35.0745 85 37C84.5853 31.8632 83.0026 28.6216 81 24L59 24L60 28C57.3023 27.1724 56.7016 26.7265 56 24L49 24M85 24C86.5467 26.4493 88.1834 28.1586 89 31C93.8388 30.8082 96.8148 32.7035 99 37L102 35L102 33C100.365 32.455 100.545 32.6351 100 31C95.8712 30.0272 95.6189 27.2219 92.4552 25.0278C90.4041 23.6052 87.3584 24.0083 85 24M97 24C98.1553 26.1329 98.882 26.7824 101 28C102.103 26.5434 102.543 26.1034 104 25C101.733 24.3134 99.3772 24.2742 97 24M77 58C75.5005 62.7761 68.7669 65.3706 65 68.4645C58.9364 73.4448 54.0324 79.8366 50.7994 87C47.7977 93.6508 49 101.865 49 109L49 152C51.8217 145.338 51.4645 137.708 54.9853 131C57.8196 125.6 64.0896 122.164 66.3974 116.715C67.7607 113.495 67.4241 109.408 68.4398 106C70.7938 98.1015 75.7911 91.5322 82 86.2099C87.183 81.7669 93.5198 78.8701 100 76.885C103.321 75.8678 107.759 75.576 110.697 73.686C113.275 72.0267 113.734 68.6202 114.88 66C116.552 62.1766 118.948 58.9951 122.015 56.1736C134.286 44.886 152.829 40.3086 160 24C147.573 24 129.86 20.6721 119 27.4398C103.731 36.9552 97.2167 58.2723 77 58M161 24C165.894 39.3257 183.606 44.2051 195 53.4676C198.629 56.4175 202.325 59.8515 204.583 64C206.103 66.7937 206.237 71.0303 208.589 73.2585C210.853 75.4033 215.114 75.4777 218 76.2978C223.961 77.9921 229.88 80.2173 234.999 83.7739C242.502 88.986 248.405 96.3499 251.452 105C252.797 108.816 251.928 114.118 254.028 117.486C255.823 120.366 259.19 122.322 261.319 125.015C266.345 131.371 269.63 139.909 270 148C272.395 142.293 271 134.154 271 128C271 111.57 274.235 93.2065 264.64 79C261.232 73.9533 256.888 69.3986 252 65.7608C248.862 63.4253 244.321 61.829 243 58C237.48 58.3637 228.472 55.4831 224.39 51.581C221.296 48.6237 219.654 44.2442 216.815 41C211.979 35.474 206.302 30.2184 200 26.3989C195.288 23.5432 190.309 24 185 24L161 24M216 24L219 28C221.481 26.9827 222.264 26.5615 223 24L216 24M226 25C225.194 28.5957 223.772 30.5574 220 31C218.897 32.4566 218.457 32.8966 217 34C218.612 35.3136 220.085 36.1873 222 37L222 33C224.297 32.3265 224.774 32.0347 226 30L231 31C231.817 28.1585 233.453 26.4494 235 24C231.831 24.0081 229.041 24.1004 226 25M239 24C238.326 26.2974 238.035 26.7741 236 28C235.99 31.5588 235.154 34.6499 234 38C237.239 35.9084 237.31 32.6459 238 29C240.532 29.8192 242.353 30.1798 245 30L246 31L245 36C247.035 37.2259 247.326 37.7026 248 40L242 38C243.222 39.733 244.009 40.1514 246 41C243.451 41.5708 241.605 41.3705 239 41L240 45C242.805 44.9537 245.262 45.3902 248 46C248.545 44.3649 248.365 44.545 250 44C250.271 41.2982 250.812 40.6185 253 39L255 43L260 42L260 45C263.207 45.4969 264.444 46.1504 266 49C267.797 49 267.521 48.9857 269 48C266.617 44.1624 262.066 38.3412 270 38L269 42C272.731 37.0755 270.348 29.8359 271 24L265 24L265 28C262.302 27.1724 261.702 26.7266 261 24L239 24z"/>
<path style="fill:#faf3e0; stroke:none;" d="M77 26L77 29L80 29L80 26L77 26M240 26C241.324 28.0707 241.547 28.1391 244 28C242.457 26.7333 241.952 26.5107 240 26M61 30C60.5194 32.2007 60.5194 32.7993 61 35L63 35C63.4806 32.7994 63.4806 32.2006 63 30L61 30M256 34C254.057 33.5982 253.943 33.5982 252 34C254.915 35.843 257.776 34.9784 261 34C259.396 30.7377 257.1 30.1339 256 34z"/>
<path style="fill:#060504; stroke:none;" d="M241 32L241 34L243 34L243 32L241 32z"/>
<path style="fill:#faf3e0; stroke:none;" d="M65 33L65 36L68 36L68 33L65 33z"/>
<path style="fill:#060504; stroke:none;" d="M89 34L90 39C91.7968 39 91.5215 38.9857 93 38C91.7853 35.9991 91.001 35.2147 89 34M228 35L228 39C229.981 37.8397 230.74 36.9506 232 35L228 35z"/>
<path style="fill:#faf3e0; stroke:none;" d="M57 40C58.8499 40.2021 60.1501 40.2021 62 40C60.7225 36.1564 58.2775 36.1564 57 40M258 37L258 39C259.801 39.5618 261.122 39.8241 263 40L262 36L258 37z"/>
<path style="fill:#060504; stroke:none;" d="M76 38L76 40L78 40L78 38L76 38M94 44L94 46C95.6351 45.455 95.455 45.6351 96 44L94 44M127 84C110.482 84.1367 86.6808 88.9185 81.0548 107C79.0912 113.311 79.8137 120.61 81 127C63.3141 127.379 62 143.918 62 158C62 171.901 63.7571 187.631 81 188C79.7945 194.494 78.8045 202.654 81.1335 209C87.3325 225.89 110.077 230.868 126 231C126 235.221 125.454 239.904 126.638 244C129.484 253.846 139.96 258.346 148 263.204C151.342 265.223 155.963 269.823 160 269.924C163.995 270.024 168.717 265.382 172 263.4C179.515 258.864 190.5 254.079 193.347 245C194.703 240.677 194 235.481 194 231C213.971 230.588 239.118 223.488 240.816 200C241.11 195.932 240.01 191.904 239 188C243.743 187.899 248.231 187.258 251.787 183.775C256.616 179.046 257.395 172.345 258.155 166C260.013 150.487 259.352 127.434 239 127C240.097 122.759 241.216 118.417 240.826 114C238.808 91.2005 213.396 84.1606 194 84C194.157 80.332 195.058 76.6453 194.305 73C192.054 62.1089 181.564 57.4359 173 52.1891C169.465 50.0232 164.349 44.9338 160 45.0733C155.948 45.2033 151.41 49.7466 148 51.7161C134.771 59.3567 122.936 66.9316 127 84M224 44C224.545 45.6352 224.365 45.4549 226 46L226 44L224 44M68 48L68 50L70 50L70 48L68 48M81 48L81 51C82.7968 51 82.5215 50.9857 84 50C82.7772 48.8048 82.58 48.6836 81 48M236 49C237.223 50.1952 237.42 50.3164 239 51L239 48C237.203 48 237.479 48.0143 236 49M251.333 48.6667C251.278 48.7221 251.222 49.7779 251.667 49.3333C251.722 49.2777 251.778 48.2222 251.333 48.6667M57 49L56 53C58.0347 51.7741 58.3265 51.2974 59 49L57 49M261 49C261.936 50.9486 262.392 51.5502 264 53C263.326 50.7026 263.035 50.2259 261 49M73 54C75.1236 53.1007 75.1007 53.1236 76 51C73.8764 51.8993 73.8993 51.8764 73 54M244 51C245.229 52.8698 245.868 53.2235 248 54C246.55 52.3924 245.949 51.9357 244 51M49 60L53 60L53 56C50.7511 57.1535 50.1535 57.7511 49 60M268 56L267 60L271 60C270.064 58.0514 269.608 57.4498 268 56M53 63L54 64L53 63M266 63L267 64L266 63M49 64L49 66L52 66L52 64L49 64M268 64C269.223 65.1951 269.42 65.3164 271 66C270.02 64.2167 270.092 64.4057 268 64M268 76L269 77L268 76z"/>
<path style="fill:#faf3e0; stroke:none;" d="M160 81L155 85C156.795 87.5075 158.493 89.2048 161 91L165 85L160 81M146 116C147.81 117.24 147.777 117.184 150 117C148.494 116.317 147.685 116.174 146 116M117 118L117 126L128 126L128 118L126 118L126 125L123 125L123 118C122.015 120.332 122.019 122.457 122 125L119 125L119 118L117 118M134 118L131 126C134.145 124.906 135.85 124.841 139 126L136 118L134 118M144 118L144 126C146.597 124.67 147.591 123.564 149 121C149.562 122.801 149.824 124.122 150 126C151.098 123.387 150.993 120.835 151 118C148.956 119.624 148.104 120.643 147 123C146.438 121.199 146.176 119.878 146 118L144 118M157 118C157.553 120.895 157.553 123.105 157 126C159.605 125.425 161.375 125.499 164 126C162.674 122.76 162.674 121.24 164 118C161.375 118.501 159.605 118.575 157 118M172 118L169 126C172.145 124.906 173.85 124.841 177 126C176.465 122.981 175.504 120.673 174 118L172 118M183 118L183 126C183.685 124.752 183.749 124.452 184 123C186.297 123.674 186.774 123.965 188 126C189.098 123.387 188.993 120.835 189 118C188.315 119.248 188.251 119.549 188 121C185.668 120.434 184.69 119.704 183 118M198 118C196.496 120.673 195.535 122.981 195 126C198.15 124.841 199.855 124.906 203 126L200 118L198 118z"/>
<path style="fill:#060504; stroke:none;" d="M198 120C198.406 122.092 198.217 122.02 200 123C199.309 121.612 199.015 121.139 198 120M134 121L134 123L136 123L136 121L134 121M173 121L172 123L174 123C174 121.147 174.3 121.65 173 121z"/>
<path style="fill:#faf3e0; stroke:none;" d="M87 140C87 148.457 84.9291 160.127 88.3673 167.996C93.0797 178.782 108.813 180.093 115.146 169.985C120.215 161.893 118 149.104 118 140C108.307 141.961 109.146 149.955 108.995 158C108.916 162.212 107.371 168.133 102.004 168.133C97.3643 168.133 95.4245 162.785 95.0941 159C94.3976 151.02 97.1847 142.062 87 140M121 140L121 177C131.933 174.774 129 161.586 129 153C133.252 157.989 135.877 164.029 140 169C143.062 163.76 146.41 158.477 149 153C151.461 161.327 146.498 174.623 158 177L158 140C149.217 140.772 144.55 145.651 139 152C135.753 144.394 129.124 140.372 121 140M162 140L162 177C172.933 174.774 170 161.586 170 153C174.094 157.816 177.496 163.19 180 169C183.881 164.365 187.315 158.419 190 153C192.526 161.547 187.232 174.604 199 177L199 140C190.956 140.707 184.736 144.802 181 152C175.891 145.299 170.609 140.709 162 140M203 177C212.942 174.976 210.552 165.858 211.044 158C211.286 154.139 213.3 148.867 218 148.867C222.7 148.867 224.714 154.139 224.956 158C225.448 165.858 223.058 174.976 233 177C233 168.225 235.519 154.79 230.772 147.04C224.572 136.921 208.774 138.202 204.09 149.001C200.771 156.652 203 168.756 203 177M217 157C215.451 159.136 214.136 160.451 212 162L217 168L219 168C220.549 165.864 221.864 164.549 224 163L219 157L217 157z"/>
<path style="fill:#060504; stroke:none;" d="M49 163L49 206C49 212.651 47.7488 220.745 50.3634 227C53.4957 234.493 58.7561 241.407 65 246.535C68.7687 249.631 75.3914 252.246 77 257C83.2858 256.915 92.2078 259.496 96.6103 264.214C99.5994 267.417 101.272 271.677 104.185 275C108.455 279.872 113.503 284.135 119 287.56C129.86 294.328 147.573 291 160 291C149.802 269.562 115.251 266.621 113 241C97.2193 238.962 79.9324 231.521 71.9051 217C68.5729 210.972 68.9462 204.221 66.4005 198.17C64.1523 192.826 57.9781 189.291 55.1242 184C51.4612 177.209 51.8555 169.742 49 163M270 166C269.821 174.42 266.63 183.377 261.319 189.961C259.168 192.627 255.795 194.547 254.028 197.464C251.965 200.866 252.608 206.167 251.427 210C248.848 218.364 242.981 225.412 235.999 230.51C230.953 234.195 224.978 236.791 219 238.561C215.843 239.496 211.105 239.526 208.6 241.857C206.309 243.988 206.172 248.294 204.633 251C202.287 255.123 198.651 258.564 195 261.532C183.551 270.84 165.924 275.58 161 291C172.88 291 190.716 294.39 201 287.817C206.889 284.053 212.243 279.311 216.79 274C219.616 270.699 221.372 266.428 224.518 263.419C228.912 259.215 238.071 256.493 244 257C243.402 255.805 243.534 256.023 242 255C254.2 249.736 267.681 237.548 270.61 224C272.751 214.094 271 202.124 271 192C271 184.256 273.004 173.159 270 166z"/>
<path style="fill:#faf3e0; stroke:none;" d="M145 189C146.81 190.24 146.777 190.184 149 190C147.494 189.317 146.685 189.174 145 189M118 191C118.561 194.527 119.326 196.063 123 196L123 199L125 199L125 191L123 191L123 195L120 195L120 191L118 191M133 191L130 199C133.145 197.906 134.85 197.841 138 199L135 191L133 191M143 191L143 199C145.597 197.67 146.591 196.564 148 194C148.562 195.801 148.824 197.122 149 199C150.098 196.387 149.993 193.836 150 191C147.956 192.624 147.104 193.643 146 196C145.438 194.199 145.176 192.878 145 191L143 191M156 191C156.553 193.895 156.553 196.105 156 199C158.605 198.425 160.375 198.499 163 199C161.674 195.76 161.674 194.24 163 191C160.375 191.501 158.605 191.575 156 191M171 191L168 199C171.145 197.906 172.85 197.841 176 199C175.313 196.099 174.388 193.638 173 191L171 191M182 191L182 199C182.685 197.752 182.749 197.452 183 196C185.297 196.674 185.774 196.965 187 199C188.098 196.387 187.993 193.836 188 191C187.315 192.248 187.251 192.548 187 194C184.668 193.434 183.69 192.704 182 191M197 191C195.478 193.608 194.161 196.213 193 199C196.473 198.008 198.578 197.81 202 199L199 191L197 191z"/>
<path style="fill:#060504; stroke:none;" d="M133 194L133 196L135 196L135 194L133 194M171 194L171 196L173 196L173 194L171 194M197 194L197 196L199 196L199 194L197 194z"/>
<path style="fill:#faf3e0; stroke:none;" d="M160 224C156.888 227.822 156.745 229.647 159 234L161 234C162.33 232.247 163.247 231.33 165 230C163.488 227.744 161.968 225.868 160 224z"/>
<path style="fill:#060504; stroke:none;" d="M49 249C50.453 250.843 51.7353 251.259 54 252C52.3136 250.344 51.2537 249.749 49 249M268 251C270.092 250.594 270.02 250.783 271 249C269.42 249.684 269.223 249.805 268 251M266 251L267 252L266 251M49 255C49.9357 256.949 50.3924 257.55 52 259L53 255L49 255M267 255L268 259C269.608 257.55 270.064 256.949 271 255L267 255M73 260C73.6735 262.297 73.9653 262.774 76 264C75.0643 262.051 74.6076 261.45 73 260M244 264C245.949 263.064 246.55 262.608 248 261C245.868 261.776 245.229 262.13 244 264M56 262C56.6839 264.209 57.0799 264.703 59 266L58 262L56 262M262 262L261 266C263.035 264.774 263.326 264.297 264 262L262 262M81 264L81 267C82.7968 267 82.5215 266.986 84 266C82.7772 264.805 82.58 264.684 81 264M236 265C237.223 266.195 237.42 266.316 239 267L239 264C237.203 264 237.479 264.014 236 265M68 265L68 267L70 267L70 265L68 265M250 265L250 267L252 267L252 265L250 265M53 266C52.0143 267.479 52 267.203 52 269C55.0355 271.88 55.1913 273.915 55 278L51 278L51 274L49 274C49 279.619 49.6216 285.435 49 291L56 291C56.5754 288.197 57.1176 287.343 60 287L59 291L81 291C83.0685 286.226 84.7633 282.12 86 277C82.9106 279.002 83.0411 281.464 83 285L79 285L79 281L75 285C74.6091 279.737 73.5793 277.243 75 272C77.0417 272.895 78.8277 273.536 81 274L80 270C77.9784 270.098 75.1164 269.457 73.2593 270.337C69.1432 272.288 69.5009 276.621 65 272L61 274L60 270C56.7499 269.494 55.2045 268.41 53 266M266 266C264.444 268.85 263.207 269.503 260 270L259 274L254 273L253 276L251 276C249.126 270.097 241.547 266.321 239 274C241.172 273.536 242.958 272.895 245 272L249 279L245 279L246 284L245 285C241.707 284.557 239.169 285.027 236 286C237.248 286.685 237.548 286.749 239 287L239 291L261 291L260 288L265 287L265 291L271 291C270.324 284.953 271.753 278.932 270 273C269.532 274.846 269.699 276.069 270 278C264.359 276.295 263.909 271.791 269 269L269 267L268 266L266 266M94 269L94 271L96 271C95.4549 269.365 95.6352 269.545 94 269M225.333 269.667C225.278 269.722 225.222 270.778 225.667 270.333C225.722 270.278 225.778 269.222 225.333 269.667z"/>
<path style="fill:#faf3e0; stroke:none;" d="M58.6026 275.157C56.8698 276.314 58.6642 279.001 60.3974 277.843C62.1302 276.686 60.3358 273.999 58.6026 275.157M260 274C259.438 275.801 259.176 277.122 259 279C262.036 278 262.494 277.137 262 274L260 274z"/>
<path style="fill:#060504; stroke:none;" d="M76 275L76 277C77.6351 276.455 77.4549 276.635 78 275L76 275M243.333 275.667C243.278 275.722 243.222 276.778 243.667 276.333C243.722 276.278 243.778 275.222 243.333 275.667M90 276L89 280C91.5251 279.146 92.03 278.492 93 276L90 276M228 276L228 280L232 280C230.74 278.049 229.981 277.16 228 276M99 278C96.8512 282.23 93.7636 284.206 89 284C88.1834 286.841 86.5467 288.551 85 291C87.3584 290.992 90.4041 291.395 92.4552 289.972C95.6189 287.778 95.8713 284.973 100 284L103 281L99 278M220 278L218 281C219.186 282.186 219.528 282.584 220 284C224 284.428 225.397 286.065 226 290C229.041 290.9 231.831 290.992 235 291C233.453 288.551 231.817 286.841 231 284L226 285C224.774 282.965 224.297 282.674 222 282L222 278L220 278M235 278L236 284C237.039 281.471 237.093 279.824 235 278z"/>
<path style="fill:#faf3e0; stroke:none;" d="M65 279L65 282L68 282L68 279L65 279M252 280C253.81 281.24 253.777 281.184 256 281L257 285C259.249 283.846 259.846 283.249 261 281C257.935 280.104 255.156 279.545 252 280M60 280C60.1759 281.878 60.4382 283.199 61 285L63 285C63.4943 281.863 63.0359 281 60 280z"/>
<path style="fill:#060504; stroke:none;" d="M241 281C241.545 282.635 241.365 282.455 243 283L243 281L241 281z"/>
<path style="fill:#faf3e0; stroke:none;" d="M77 286L77 289L80 289L80 286L77 286M241 286L240 287L240 289C242.364 288.518 242.518 288.364 243 286L241 286z"/>
<path style="fill:#060504; stroke:none;" d="M219 287L217 291L223 291C222.264 288.438 221.481 288.017 219 287M97 291L104 291C101.313 288.715 99.1404 287.828 97 291z"/>
</svg>
